<?xml version="1.0" encoding="UTF-8" standalone="no"?>
<svg
   xmlns:dc="http://purl.org/dc/elements/1.1/"
   xmlns:cc="http://creativecommons.org/ns#"
   xmlns:rdf="http://www.w3.org/1999/02/22-rdf-syntax-ns#"
   xmlns:svg="http://www.w3.org/2000/svg"
   xmlns="http://www.w3.org/2000/svg"
   version="1.1"
   id="svg28"
   xml:space="preserve"
   width="521.09283"
   height="518.44543"
   viewBox="0 0 521.09283 518.44543"><metadata
     id="metadata34"><rdf:RDF><cc:Work
         rdf:about=""><dc:format>image/svg+xml</dc:format><dc:type
           rdf:resource="http://purl.org/dc/dcmitype/StillImage" /><dc:title></dc:title></cc:Work></rdf:RDF></metadata><defs
     id="defs32"><clipPath
       clipPathUnits="userSpaceOnUse"
       id="clipPath46"><path
         d="M 0,1.206994e-5 H 959.76 V 540.00001 H 0 Z"
         id="path44" /></clipPath></defs><g
     id="g36"
     transform="matrix(1.3333333,0,0,-1.3333333,-121.29557,649.5052)"><g
       id="g38" /><g
       id="g40"><g
         id="g42"
         clip-path="url(#clipPath46)"><path
           d="M 0,540 H 959.76 V 1.206994e-5 H 0 Z"
           style="fill:#ffffff;fill-opacity:1;fill-rule:nonzero;stroke:none"
           id="path48" /></g></g><g
       id="g50"><path
         d="M 0,540 H 960 V 1.40816e-5 H 0 Z"
         style="fill:#ffffff;fill-opacity:1;fill-rule:nonzero;stroke:none"
         id="path52" /><g
         id="g54"
         transform="matrix(7.874016e-5,0,0,-7.874016e-5,93.80661,485.2193)"><path
           d="M 0,66000.41 C 0,29549.39 29549.38,0 66000.39,0 H 2191200 c 36451,0 66000,29549.39 66000,66000.41 V 329999.6 c 0,36451 -29549,66000.4 -66000,66000.4 H 66000.39 C 29549.38,396000 0,366450.6 0,329999.6 Z"
           style="fill:none;stroke:#181717;stroke-width:12700;stroke-linecap:butt;stroke-linejoin:miter;stroke-miterlimit:8;stroke-dasharray:none;stroke-opacity:1"
           id="path56" /></g><g
         id="g58"
         transform="matrix(0.24,0,0,0.24,114.0478,-76.07999)"><text
           transform="matrix(1,0,0,-1,0,2250)"
           style="font-variant:normal;font-weight:normal;font-size:58.3333px;font-family:Arial;-inkscape-font-specification:ArialMT;writing-mode:lr-tb;fill:#181717;fill-opacity:1;fill-rule:nonzero;stroke:none"
           id="text62"><tspan
             x="0 19.273333 51.554996 70.828331 86.95166 132.24165 171.28999 219.72998 235.85332 268.13498 300.41666 316.53998 348.82166"
             y="0"
             id="tspan60">(a) OPM data </tspan></text></g><g
         id="g64"
         transform="matrix(0.24,0,0,0.24,201.6728,-76.07999)"><text
           transform="matrix(1,0,0,-1,0,2250)"
           style="font-variant:normal;font-weight:normal;font-size:58.3333px;font-family:Arial;-inkscape-font-specification:ArialMT;writing-mode:lr-tb;fill:#181717;fill-opacity:1;fill-rule:nonzero;stroke:none"
           id="text68"><tspan
             x="0"
             y="0"
             id="tspan66">r</tspan></text></g><g
         id="g70"
         transform="matrix(0.24,0,0,0.24,206.2977,-76.07999)"><text
           transform="matrix(1,0,0,-1,0,2250)"
           style="font-variant:normal;font-weight:normal;font-size:58.3333px;font-family:Arial;-inkscape-font-specification:ArialMT;writing-mode:lr-tb;fill:#181717;fill-opacity:1;fill-rule:nonzero;stroke:none"
           id="text74"><tspan
             x="0 32.293331 48.439999 67.713333 80.73333 113.02666 142.19333 174.48666"
             y="0"
             id="tspan72">etrieval</tspan></text></g><g
         id="g76"
         transform="matrix(7.874016e-5,0,0,-7.874016e-5,302.2857,485.2193)"><path
           d="M 0,66000.41 C 0,29549.39 29549.38,0 66000.39,0 H 2191200 c 36451,0 66000,29549.39 66000,66000.41 V 329999.6 c 0,36451 -29549,66000.4 -66000,66000.4 H 66000.39 C 29549.38,396000 0,366450.6 0,329999.6 Z"
           style="fill:none;stroke:#181717;stroke-width:12700;stroke-linecap:butt;stroke-linejoin:miter;stroke-miterlimit:8;stroke-dasharray:none;stroke-opacity:1"
           id="path78" /></g><g
         id="g80"
         transform="matrix(0.24,0,0,0.24,328.3394,-76.07999)"><text
           transform="matrix(1,0,0,-1,0,2250)"
           style="font-variant:normal;font-weight:normal;font-size:58.3333px;font-family:Arial;-inkscape-font-specification:ArialMT;writing-mode:lr-tb;fill:#181717;fill-opacity:1;fill-rule:nonzero;stroke:none"
           id="text84"><tspan
             x="0 19.273333 51.566662 70.839996 86.986664 129.17332 161.46666 177.61333 209.90666 226.05331 258.34665 290.63998 309.91333 339.07999 352.09998 381.26663 397.4133 429.70663 461.99997 491.16663"
             y="0"
             id="tspan82">(b) Data persistence</tspan></text></g><path
         d="m 271.5389,470.1287 h 25.7469 l -10e-5,-1 h -25.7468 z m 24.7469,2.5 5.9999,-3 -6,-3 z"
         style="fill:#181717;fill-opacity:1;fill-rule:nonzero;stroke:none"
         id="path86" /><g
         id="g88"
         transform="matrix(7.874016e-5,0,0,-7.874016e-5,302.2857,440.1156)"><path
           d="M 0,191481 C 0,85728.94 85728.97,0 191481,0 h 1874009 c 105752,0 191481,85728.94 191481,191481 v 2490478 c 0,105752 -85729,191481 -191481,191481 H 191481 C 85728.97,2873440 0,2787711 0,2681959 Z"
           style="fill:none;stroke:#181717;stroke-width:12700;stroke-linecap:butt;stroke-linejoin:miter;stroke-miterlimit:8;stroke-dasharray:none;stroke-opacity:1"
           id="path90" /></g><g
         id="g92"
         transform="matrix(0.24,0,0,0.24,324.0279,-118.32)"><text
           transform="matrix(1,0,0,-1,0,2250)"
           style="font-variant:normal;font-weight:normal;font-size:58.3333px;font-family:Arial;-inkscape-font-specification:ArialMT;writing-mode:lr-tb;fill:#181717;fill-opacity:1;fill-rule:nonzero;stroke:none"
           id="text96"><tspan
             x="0 19.273333 48.439999 67.713333 80.651665 119.71166 152.00499 184.29832 232.73833 265.03165 278.05164 307.21832 323.36499 355.65833 387.95163 404.0983 436.39163 465.55832 481.70499 494.72498 527.01831"
             y="0"
             id="tspan94">(c) Anomaly detection</tspan></text></g><path
         d="m 390.6519,454.0385 -0.006,-8.9226 1,-6e-4 0.006,8.9226 z m -2.5051,-7.921 2.9961,-6.0019 3.0039,5.9981 -6,0.004 z"
         style="fill:#181717;fill-opacity:1;fill-rule:nonzero;stroke:none"
         id="path98" /><g
         id="g100"
         transform="matrix(7.874016e-5,0,0,-7.874016e-5,93.80669,439.9081)"><path
           d="M 0,191499.6 C 0,85737.3 85737.42,0 191499.9,0 H 2065700 c 105763,0 191500,85737.3 191500,191499.6 V 2679299 c 0,105763 -85737,191500 -191500,191500 H 191499.9 C 85737.42,2870799 0,2785062 0,2679299 Z"
           style="fill:none;stroke:#181717;stroke-width:12700;stroke-linecap:butt;stroke-linejoin:miter;stroke-miterlimit:8;stroke-dasharray:none;stroke-opacity:1"
           id="path102" /></g><g
         id="g104"
         transform="matrix(0.24,0,0,0.24,157.4228,-118.56)"><text
           transform="matrix(1,0,0,-1,0,2250)"
           style="font-variant:normal;font-weight:normal;font-size:58.3333px;font-family:Arial;-inkscape-font-specification:ArialMT;writing-mode:lr-tb;fill:#181717;fill-opacity:1;fill-rule:nonzero;stroke:none"
           id="text108"><tspan
             x="0 19.273333 51.554996 70.828331 86.95166 129.14999 171.34833"
             y="0"
             id="tspan106">(d) RCA</tspan></text></g><g
         id="g110"
         transform="matrix(7.874016e-5,0,0,-7.874016e-5,93.80661,198.8038)"><path
           d="M 0,217759.9 C 0,97494.41 97494.22,0 217759.4,0 H 4686897 c 120265,0 217759,97494.41 217759,217759.9 V 1024176 c 0,120266 -97494,217760 -217759,217760 H 217759.4 C 97494.22,1241936 0,1144442 0,1024176 Z"
           style="fill:none;stroke:#181717;stroke-width:12700;stroke-linecap:butt;stroke-linejoin:miter;stroke-miterlimit:8;stroke-dasharray:none;stroke-opacity:1"
           id="path112" /></g><g
         id="g114"
         transform="matrix(0.24,0,0,0.24,237.3433,-360.24)"><text
           transform="matrix(1,0,0,-1,0,2250)"
           style="font-variant:normal;font-weight:normal;font-size:58.3333px;font-family:Arial;-inkscape-font-specification:ArialMT;writing-mode:lr-tb;fill:#181717;fill-opacity:1;fill-rule:nonzero;stroke:none"
           id="text118"><tspan
             x="0 19.273333 51.566662 70.839996 86.986664 124.98499 138.00499 167.17166 199.46498 231.75832 244.77832 257.79831 286.965 319.2583 335.40497 348.42499 380.71832"
             y="0"
             id="tspan116">(e) Visualization</tspan></text></g><path
         d="m 302.2841,327.488 -4,-0.0134 0.003,-1 4,0.0134 z m -7,-0.0235 -4,-0.0135 0.003,-1 4,0.0135 z m -7,-0.0236 -3.9999,-0.0135 0.003,-1 4,0.0135 -0.003,1 z m -6.9999,-0.0236 -4,-0.0135 0.003,-1 3.9999,0.0135 -0.003,1 z m -3.7554,2.4874 -5.9898,-3.0202 6.01,-2.9798 z"
         style="fill:#181717;fill-opacity:1;fill-rule:nonzero;stroke:none"
         id="path120" /><path
         d="m 182.1728,213.861 v -4 h 1 v 4 z m 0,-7 v -1.0286 h 3.9714 v 1 h -3.4714 l 0.5,-0.5 v 0.5286 z m 6.9714,-1.0286 h 4 v 1 h -4 z m 7,0 h 4 v 1 h -4 z m 7,0 h 4 v 1 h -4 z m 7,0 h 4 v 1 h -4 z m 7,0 h 4 v 1 h -4 z m 7,0 h 4 v 1 h -4 z m 7,0 h 4 v 1 h -4 z m 7,0 h 4 v 1 h -4 z m 7,0 h 4 v 1 h -4 z m 7,0 h 4 v 1 h -4 z m 7,0 h 4 v 1 h -4 z m 7,0 h 4 v 1 h -4 z m 7,0 h 4 v 1 h -4 z m 7,0 h 4 v 1 h -4 z m 6.2591,0.2591 v -2.2877 h 1 v 2.2877 z m -2.5,-1.2877 3,-6 3,6 z"
         style="fill:#181717;fill-opacity:1;fill-rule:nonzero;stroke:none"
         id="path122" /><path
         d="m 391.643,213.8604 v -4 h -1 v 4 z m 0,-7 v -1.0292 h -3.9708 v 1 h 3.4708 l -0.5,-0.5 v 0.5292 z m -6.9708,-1.0292 h -4 v 1 h 4 z m -7,0 h -4 v 1 h 4 z m -7,0 h -4 v 1 h 4 z m -7,0 h -4 v 1 h 4 z m -7,0 h -4 v 1 h 4 z m -7,0 h -4 v 1 h 4 z m -7,0 h -4 v 1 h 4 z m -7,0 h -4 v 1 h 4 z m -7,0 h -4 v 1 h 4 z m -7,0 h -4 v 1 h 4 z m -7,0 h -4 v 1 h 4 z m -7,0 h -4 v 1 h 4 z m -7,0 h -4 v 1 h 4 z m -7,0 h -4 v 1 h 4 z m -6.2689,0.2688 v -2.2981 h -1 V 206.1 Z m 2.5,-1.2981 -3,-6 -3,6 z"
         style="fill:#181717;fill-opacity:1;fill-rule:nonzero;stroke:none"
         id="path124" /><path
         d="m 314.1729,300.6684 c 0,3.8222 3.0985,6.9207 6.9207,6.9207 h 137.9086 c 3.8222,0 6.9207,-3.0985 6.9207,-6.9207 v -67.7319 c 0,-3.8222 -3.0985,-6.9207 -6.9207,-6.9207 H 321.0936 c -3.8222,0 -6.9207,3.0985 -6.9207,6.9207 z"
         style="fill:#f2f2f2;fill-opacity:1;fill-rule:nonzero;stroke:none"
         id="path126" /><g
         id="g128"
         transform="matrix(7.874016e-5,0,0,-7.874016e-5,314.1729,307.5891)"><path
           d="M 0,87892.8 C 0,39350.95 39350.93,0 87892.75,0 H 1839332 c 48542,0 87893,39350.95 87893,87892.8 v 860195.3 c 0,48541.9 -39351,87892.9 -87893,87892.9 H 87892.75 C 39350.93,1035981 0,996630 0,948088.1 Z"
           style="fill:none;stroke:#181717;stroke-width:12700;stroke-linecap:butt;stroke-linejoin:miter;stroke-miterlimit:8;stroke-dasharray:none;stroke-opacity:1"
           id="path130" /></g><g
         id="g132"
         transform="matrix(0.24,0,0,0.24,376.2704,-246.48)"><text
           transform="matrix(1,0,0,-1,0,2250)"
           style="font-variant:normal;font-weight:normal;font-size:50px;font-family:Arial;-inkscape-font-specification:ArialMT;writing-mode:lr-tb;fill:#181717;fill-opacity:1;fill-rule:nonzero;stroke:none"
           id="text136"><tspan
             x="0 45.540001 78.879997"
             y="0"
             id="tspan134">WAD</tspan></text></g><path
         d="m 390.0784,237.3565 h 16.4 v 21.11496 h -16.4 z"
         style="fill:#767171;fill-opacity:1;fill-rule:evenodd;stroke:none"
         id="path138" /><path
         d="m 406.4783,237.3565 h 16.4 v 21.11496 h -16.4 z"
         style="fill:#767171;fill-opacity:1;fill-rule:evenodd;stroke:none"
         id="path140" /><path
         d="m 422.8783,237.3565 h 16.4 v 21.11496 h -16.4 z"
         style="fill:#767171;fill-opacity:1;fill-rule:evenodd;stroke:none"
         id="path142" /><path
         d="m 439.2783,237.3565 h 16.4 v 21.11496 h -16.4 z"
         style="fill:#767171;fill-opacity:1;fill-rule:evenodd;stroke:none"
         id="path144" /><g
         id="g146"
         transform="matrix(7.874016e-5,0,0,-7.874016e-5,324.4784,258.4714)"><path
           d="M 208280,-6350 V 274510"
           style="fill:none;stroke:#000000;stroke-width:12700;stroke-linecap:butt;stroke-linejoin:round;stroke-miterlimit:10;stroke-dasharray:none;stroke-opacity:1"
           id="path148" /></g><g
         id="g150"
         transform="matrix(7.874016e-5,0,0,-7.874016e-5,324.4784,258.4714)"><path
           d="M 416560,-6350 V 274510"
           style="fill:none;stroke:#000000;stroke-width:12700;stroke-linecap:butt;stroke-linejoin:round;stroke-miterlimit:10;stroke-dasharray:none;stroke-opacity:1"
           id="path152" /></g><g
         id="g154"
         transform="matrix(7.874016e-5,0,0,-7.874016e-5,324.4784,258.4714)"><path
           d="M 624840,-6350 V 274510"
           style="fill:none;stroke:#000000;stroke-width:12700;stroke-linecap:butt;stroke-linejoin:round;stroke-miterlimit:10;stroke-dasharray:none;stroke-opacity:1"
           id="path156" /></g><g
         id="g158"
         transform="matrix(7.874016e-5,0,0,-7.874016e-5,324.4784,258.4714)"><path
           d="M 833120,-6350 V 274510"
           style="fill:none;stroke:#000000;stroke-width:12700;stroke-linecap:butt;stroke-linejoin:round;stroke-miterlimit:10;stroke-dasharray:none;stroke-opacity:1"
           id="path160" /></g><g
         id="g162"
         transform="matrix(7.874016e-5,0,0,-7.874016e-5,324.4784,258.4714)"><path
           d="M 1041400,-6350 V 274510"
           style="fill:none;stroke:#000000;stroke-width:12700;stroke-linecap:butt;stroke-linejoin:round;stroke-miterlimit:10;stroke-dasharray:none;stroke-opacity:1"
           id="path164" /></g><g
         id="g166"
         transform="matrix(7.874016e-5,0,0,-7.874016e-5,324.4784,258.4714)"><path
           d="M 1249680,-6350 V 274510"
           style="fill:none;stroke:#000000;stroke-width:12700;stroke-linecap:butt;stroke-linejoin:round;stroke-miterlimit:10;stroke-dasharray:none;stroke-opacity:1"
           id="path168" /></g><g
         id="g170"
         transform="matrix(7.874016e-5,0,0,-7.874016e-5,324.4784,258.4714)"><path
           d="M 1457960,-6350 V 274510"
           style="fill:none;stroke:#000000;stroke-width:12700;stroke-linecap:butt;stroke-linejoin:round;stroke-miterlimit:10;stroke-dasharray:none;stroke-opacity:1"
           id="path172" /></g><g
         id="g174"
         transform="matrix(7.874016e-5,0,0,-7.874016e-5,324.4784,258.4714)"><path
           d="M 0,-6350 V 274510"
           style="fill:none;stroke:#000000;stroke-width:12700;stroke-linecap:butt;stroke-linejoin:round;stroke-miterlimit:10;stroke-dasharray:none;stroke-opacity:1"
           id="path176" /></g><g
         id="g178"
         transform="matrix(7.874016e-5,0,0,-7.874016e-5,324.4784,258.4714)"><path
           d="M 1666240,-6350 V 274510"
           style="fill:none;stroke:#000000;stroke-width:12700;stroke-linecap:butt;stroke-linejoin:round;stroke-miterlimit:10;stroke-dasharray:none;stroke-opacity:1"
           id="path180" /></g><g
         id="g182"
         transform="matrix(7.874016e-5,0,0,-7.874016e-5,324.4784,258.4714)"><path
           d="M -6350,0 H 1672590"
           style="fill:none;stroke:#000000;stroke-width:12700;stroke-linecap:butt;stroke-linejoin:round;stroke-miterlimit:10;stroke-dasharray:none;stroke-opacity:1"
           id="path184" /></g><g
         id="g186"
         transform="matrix(7.874016e-5,0,0,-7.874016e-5,324.4784,258.4714)"><path
           d="M -6350,268160 H 1672590"
           style="fill:none;stroke:#000000;stroke-width:12700;stroke-linecap:butt;stroke-linejoin:round;stroke-miterlimit:10;stroke-dasharray:none;stroke-opacity:1"
           id="path188" /></g><path
         d="m 328.9449,264.244 h 119.978 v -0.5 h -119.978 z m 1.0002,-3.25 -6,3 6,3 z m 117.9778,6 6,-3 -6,-3 z"
         style="fill:#181717;fill-opacity:1;fill-rule:nonzero;stroke:none"
         id="path190" /><path
         d="m 395.0783,274.994 53.8446,-1e-4 v -0.5 l -53.8446,1e-4 z m 1,-3.25 -6,3 6,3 z m 51.8446,5.9999 6,-3 -6,-3 z"
         style="fill:#181717;fill-opacity:1;fill-rule:nonzero;stroke:none"
         id="path198" /><path
         d="m 314.1729,403.513 c 0,4.35 3.5264,7.8764 7.8764,7.8764 h 135.9972 c 4.35,0 7.8764,-3.5264 7.8764,-7.8764 v -77.0866 c 0,-4.35 -3.5264,-7.8764 -7.8764,-7.8764 H 322.0493 c -4.35,0 -7.8764,3.5264 -7.8764,7.8764 z"
         style="fill:#f2f2f2;fill-opacity:1;fill-rule:nonzero;stroke:none"
         id="path206" /><g
         id="g208"
         transform="matrix(7.874016e-5,0,0,-7.874016e-5,314.1729,411.3894)"><path
           d="M 0,100030.8 C 0,44785.3 44785.25,0 100030.6,0 H 1827194 c 55246,0 100031,44785.3 100031,100030.8 V 1079030 c 0,55246 -44785,100031 -100031,100031 H 100030.6 C 44785.25,1179061 0,1134276 0,1079030 Z"
           style="fill:none;stroke:#181717;stroke-width:12700;stroke-linecap:butt;stroke-linejoin:miter;stroke-miterlimit:8;stroke-dasharray:none;stroke-opacity:1"
           id="path210" /></g><g
         id="g212"
         transform="matrix(0.24,0,0,0.24,364.0204,-142.8)"><text
           transform="matrix(1,0,0,-1,0,2250)"
           style="font-variant:normal;font-weight:normal;font-size:50px;font-family:Arial;-inkscape-font-specification:ArialMT;writing-mode:lr-tb;fill:#181717;fill-opacity:1;fill-rule:nonzero;stroke:none"
           id="text216"><tspan
             x="0 41.665001 67.43 81.495003 123.16 150.77499 178.39 206.005"
             y="0"
             id="tspan214">ML model</tspan></text></g><path
         d="m 333.1334,340.9393 1e-4,43.1082 h -0.5 l -1e-4,-43.1082 z m 3.4661,37.2342 -3.716,6.3702 -3.7159,-6.3702 c -0.0696,-0.1193 -0.0293,-0.2723 0.0899,-0.3419 0.1193,-0.0696 0.2724,-0.0293 0.342,0.09 l 3.5,6 h -0.4319 l 3.5,-6 c 0.0695,-0.1193 0.2226,-0.1596 0.3419,-0.09 0.1192,0.0695 0.1595,0.2226 0.09,0.3419 z"
         style="fill:#181717;fill-opacity:1;fill-rule:nonzero;stroke:none"
         id="path218" /><path
         d="m 332.8572,341.1893 120.5703,-10e-5 v -0.5 l -120.5703,10e-5 z m 114.6967,3.4659 6.3702,-3.716 -6.3702,-3.7159 c -0.1193,-0.0696 -0.2724,-0.0293 -0.3419,0.09 -0.0696,0.1192 -0.0293,0.2723 0.09,0.3419 l 6,3.5 v -0.4319 l -6,3.5 c -0.1193,0.0695 -0.1596,0.2226 -0.09,0.3419 0.0695,0.1193 0.2226,0.1595 0.3419,0.09 z"
         style="fill:#181717;fill-opacity:1;fill-rule:nonzero;stroke:none"
         id="path220" /><g
         id="g222"
         transform="matrix(0.24,0,0,0.24,366.6011,-207.36)"><text
           transform="matrix(1,0,0,-1,0,2250)"
           style="font-variant:normal;font-weight:normal;font-size:33.3333px;font-family:Arial;-inkscape-font-specification:ArialMT;writing-mode:lr-tb;fill:#000000;fill-opacity:1;fill-rule:nonzero;stroke:none"
           id="text226"><tspan
             x="0 20.313332 39.063328 57.813328 67.189995 85.939995 96.876656 115.62666 125.00332 141.66998 160.41998 179.16998 195.83665"
             y="0"
             id="tspan224">Feature space</tspan></text></g><path
         d="m 396.858,356.9773 c 0,1.5187 1.2312,2.75 2.75,2.75 1.5188,0 2.75,-1.2313 2.75,-2.75 0,-1.5188 -1.2312,-2.75 -2.75,-2.75 -1.5188,0 -2.75,1.2312 -2.75,2.75 z"
         style="fill:#4472c4;fill-opacity:1;fill-rule:nonzero;stroke:none"
         id="path228" /><path
         d="m 402.358,353.488 c 0,1.5188 1.2312,2.75 2.75,2.75 1.5188,0 2.75,-1.2312 2.75,-2.75 0,-1.5187 -1.2312,-2.75 -2.75,-2.75 -1.5188,0 -2.75,1.2313 -2.75,2.75 z"
         style="fill:#4472c4;fill-opacity:1;fill-rule:nonzero;stroke:none"
         id="path230" /><path
         d="m 406.608,370.3287 c 0,1.5188 1.2312,2.75 2.75,2.75 1.5188,0 2.75,-1.2312 2.75,-2.75 0,-1.5188 -1.2312,-2.75 -2.75,-2.75 -1.5188,0 -2.75,1.2312 -2.75,2.75 z"
         style="fill:#4472c4;fill-opacity:1;fill-rule:nonzero;stroke:none"
         id="path232" /><path
         d="m 413.4313,370.3247 c 0,1.5188 1.2313,2.75 2.75,2.75 1.5188,0 2.75,-1.2312 2.75,-2.75 0,-1.5188 -1.2312,-2.75 -2.75,-2.75 -1.5187,0 -2.75,1.2312 -2.75,2.75 z"
         style="fill:#4472c4;fill-opacity:1;fill-rule:nonzero;stroke:none"
         id="path234" /><path
         d="m 425.3444,356.3642 c 0,1.5188 1.2312,2.75 2.75,2.75 1.5188,0 2.75,-1.2312 2.75,-2.75 0,-1.5188 -1.2312,-2.75 -2.75,-2.75 -1.5188,0 -2.75,1.2312 -2.75,2.75 z"
         style="fill:#4472c4;fill-opacity:1;fill-rule:nonzero;stroke:none"
         id="path236" /><path
         d="m 409.0243,361.8947 c 0,1.5188 1.2312,2.75 2.75,2.75 1.5188,0 2.75,-1.2312 2.75,-2.75 0,-1.5188 -1.2312,-2.75 -2.75,-2.75 -1.5188,0 -2.75,1.2312 -2.75,2.75 z"
         style="fill:#4472c4;fill-opacity:1;fill-rule:nonzero;stroke:none"
         id="path238" /><path
         d="m 415.5156,355.2242 c 0,1.5188 1.2312,2.75 2.75,2.75 1.5188,0 2.75,-1.2312 2.75,-2.75 0,-1.5188 -1.2312,-2.75 -2.75,-2.75 -1.5188,0 -2.75,1.2312 -2.75,2.75 z"
         style="fill:#4472c4;fill-opacity:1;fill-rule:nonzero;stroke:none"
         id="path240" /><path
         d="m 357.0194,344.9494 2.693,5.3858 2.6929,-5.3858 z"
         style="fill:#ff0000;fill-opacity:1;fill-rule:nonzero;stroke:none"
         id="path242" /><path
         d="m 348.1153,357.8776 2.6929,5.3858 2.6929,-5.3858 z"
         style="fill:#ff0000;fill-opacity:1;fill-rule:nonzero;stroke:none"
         id="path244" /><path
         d="m 341.637,345.2743 2.6929,5.3859 2.6929,-5.3859 z"
         style="fill:#ff0000;fill-opacity:1;fill-rule:nonzero;stroke:none"
         id="path246" /><path
         d="m 343.4293,369.1582 2.6929,5.3858 2.6929,-5.3858 z"
         style="fill:#ff0000;fill-opacity:1;fill-rule:nonzero;stroke:none"
         id="path248" /><path
         d="m 121.0851,136.3054 334.0962,-1e-4 v -0.5 l -334.0962,1e-4 z m 328.2242,3.4658 6.3702,-3.7159 -6.3702,-3.716 c -0.1193,-0.0695 -0.2723,-0.0292 -0.3419,0.09 -0.0696,0.1193 -0.0293,0.2724 0.09,0.3419 l 6,3.5 v -0.4319 l -6,3.5 c -0.1193,0.0696 -0.1596,0.2227 -0.09,0.342 0.0696,0.1192 0.2226,0.1595 0.3419,0.0899 z"
         style="fill:#181717;fill-opacity:1;fill-rule:nonzero;stroke:none"
         id="path250" /><path
         d="m 121.3351,107.6533 1e-4,69.5103 h -0.5 l -1e-4,-69.5103 z m 3.466,63.6354 -3.7159,6.3702 -3.716,-6.3702 c -0.0695,-0.1193 -0.0292,-0.2723 0.09,-0.3419 0.1193,-0.0696 0.2724,-0.0293 0.3419,0.09 l 3.5,6 h -0.4318 l 3.4999,-6 c 0.0696,-0.1193 0.2227,-0.1596 0.342,-0.09 0.1192,0.0696 0.1595,0.2226 0.0899,0.3419 z"
         style="fill:#181717;fill-opacity:1;fill-rule:nonzero;stroke:none"
         id="path252" /><g
         id="g254"
         transform="matrix(0,0.24,-0.24,0,685.3637,122.16)"><text
           transform="matrix(1,0,0,-1,0,2250)"
           style="font-variant:normal;font-weight:normal;font-size:50px;font-family:Arial;-inkscape-font-specification:ArialMT;writing-mode:lr-tb;fill:#000000;fill-opacity:1;fill-rule:nonzero;stroke:none"
           id="text258"><tspan
             x="0 14.06"
             y="0"
             id="tspan256">f1</tspan></text></g><g
         id="g260"
         transform="matrix(0,0.24,-0.24,0,723.3831,122.16)"><text
           transform="matrix(1,0,0,-1,0,2250)"
           style="font-variant:normal;font-weight:normal;font-size:50px;font-family:Arial;-inkscape-font-specification:ArialMT;writing-mode:lr-tb;fill:#000000;fill-opacity:1;fill-rule:nonzero;stroke:none"
           id="text264"><tspan
             x="0 14.06"
             y="0"
             id="tspan262">f2</tspan></text></g><g
         id="g266"
         transform="matrix(0,0.24,-0.24,0,761.4026,122.16)"><text
           transform="matrix(1,0,0,-1,0,2250)"
           style="font-variant:normal;font-weight:normal;font-size:50px;font-family:Arial;-inkscape-font-specification:ArialMT;writing-mode:lr-tb;fill:#000000;fill-opacity:1;fill-rule:nonzero;stroke:none"
           id="text270"><tspan
             x="0 14.06"
             y="0"
             id="tspan268">f3</tspan></text></g><g
         id="g272"
         transform="matrix(0,0.24,-0.24,0,799.422,122.16)"><text
           transform="matrix(1,0,0,-1,0,2250)"
           style="font-variant:normal;font-weight:normal;font-size:50px;font-family:Arial;-inkscape-font-specification:ArialMT;writing-mode:lr-tb;fill:#000000;fill-opacity:1;fill-rule:nonzero;stroke:none"
           id="text276"><tspan
             x="0 14.06"
             y="0"
             id="tspan274">f4</tspan></text></g><g
         id="g278"
         transform="matrix(0,0.24,-0.24,0,837.4415,122.16)"><text
           transform="matrix(1,0,0,-1,0,2250)"
           style="font-variant:normal;font-weight:normal;font-size:50px;font-family:Arial;-inkscape-font-specification:ArialMT;writing-mode:lr-tb;fill:#000000;fill-opacity:1;fill-rule:nonzero;stroke:none"
           id="text282"><tspan
             x="0 14.06"
             y="0"
             id="tspan280">f5</tspan></text></g><g
         id="g284"
         transform="matrix(0,0.24,-0.24,0,875.4609,122.16)"><text
           transform="matrix(1,0,0,-1,0,2250)"
           style="font-variant:normal;font-weight:normal;font-size:50px;font-family:Arial;-inkscape-font-specification:ArialMT;writing-mode:lr-tb;fill:#000000;fill-opacity:1;fill-rule:nonzero;stroke:none"
           id="text288"><tspan
             x="0 14.06"
             y="0"
             id="tspan286">f6</tspan></text></g><g
         id="g290"
         transform="matrix(0.24,0,0,0.24,362.6921,-413.76)"><text
           transform="matrix(1,0,0,-1,0,2250)"
           style="font-variant:normal;font-weight:normal;font-size:50px;font-family:Arial;-inkscape-font-specification:ArialMT;writing-mode:lr-tb;fill:#000000;fill-opacity:1;fill-rule:nonzero;stroke:none"
           id="text294"><tspan
             x="0"
             y="0"
             id="tspan292">…</tspan></text></g><g
         id="g296"
         transform="matrix(0,0.24,-0.24,0,951.4998,122.16)"><text
           transform="matrix(1,0,0,-1,0,2250)"
           style="font-variant:normal;font-weight:normal;font-size:50px;font-family:Arial;-inkscape-font-specification:ArialMT;writing-mode:lr-tb;fill:#000000;fill-opacity:1;fill-rule:nonzero;stroke:none"
           id="text300"><tspan
             x="0"
             y="0"
             id="tspan298">f</tspan></text></g><g
         id="g302"
         transform="matrix(0,0.24,-0.24,0,951.4998,125.52)"><text
           transform="matrix(1,0,0,-1,0,2250)"
           style="font-style:italic;font-variant:normal;font-size:50px;font-family:Arial;-inkscape-font-specification:Arial-ItalicMT;writing-mode:lr-tb;fill:#000000;fill-opacity:1;fill-rule:nonzero;stroke:none"
           id="text306"><tspan
             x="0"
             y="0"
             id="tspan304">n</tspan></text></g><g
         id="g308"
         transform="matrix(7.874016e-5,0,0,-7.874016e-5,137.1428,169.0904)"><path
           d="m 0,82791 c 177195,142724 346317,325057 526143,341086 54277,4838 434371,-11945 504372,-7258 70001,4687 305404,410029 468085,359229 162681,-50800 348948,-535819 508000,-664029 C 2165653,-16391 2309284,-4900 2452915,6591"
           style="fill:none;stroke:#ff0000;stroke-width:12700;stroke-linecap:butt;stroke-linejoin:miter;stroke-miterlimit:8;stroke-dasharray:none;stroke-opacity:1"
           id="path310" /></g><g
         id="g312"
         transform="matrix(7.874016e-5,0,0,-7.874016e-5,332.8572,169.4286)"><path
           d="M 0,19957 C 161471,229204 272143,425752 439057,424543 605971,423334 778328,211667 950685,0"
           style="fill:none;stroke:#ff0000;stroke-width:12700;stroke-linecap:butt;stroke-linejoin:miter;stroke-miterlimit:8;stroke-dasharray:50800, 38100;stroke-dashoffset:0;stroke-opacity:1"
           id="path314" /></g><path
         d="m 366.1208,376.2702 h 5.3858 v -5.3859 h -5.3858 z"
         style="fill:#4472c4;fill-opacity:1;fill-rule:nonzero;stroke:none"
         id="path316" /><path
         d="m 378.1208,364.2702 h 5.3858 v -5.3859 h -5.3858 z"
         style="fill:#4472c4;fill-opacity:1;fill-rule:nonzero;stroke:none"
         id="path318" /><path
         d="m 378.5787,351.9801 h 5.3858 v -5.3858 h -5.3858 z"
         style="fill:#4472c4;fill-opacity:1;fill-rule:nonzero;stroke:none"
         id="path320" /><path
         d="m 382.3203,375.4336 h 5.3858 v -5.3858 h -5.3858 z"
         style="fill:#4472c4;fill-opacity:1;fill-rule:nonzero;stroke:none"
         id="path322" /><path
         d="m 366.6586,362.3631 h 5.3859 v -5.3859 h -5.3859 z"
         style="fill:#4472c4;fill-opacity:1;fill-rule:nonzero;stroke:none"
         id="path324" /><path
         d="m 390.298,318.55 v -5.9609 h -0.5 v 5.9609 z m 2.75,-4.9608 -3,-6.0001 -3,6 z"
         style="fill:#181717;fill-opacity:1;fill-rule:nonzero;stroke:none"
         id="path326" /><g
         id="g328"
         transform="matrix(7.874016e-5,0,0,-7.874016e-5,363.25,379.75)"><path
           d="M 15875,3175 0,215900 l 60325,136525 79375,60325 63500,57150 88900,-6350 22225,-107950 V 206375 L 377825,161925 428625,57150 425450,0 H 219075 Z"
           style="fill:none;stroke:#843c0c;stroke-width:12700;stroke-linecap:butt;stroke-linejoin:miter;stroke-miterlimit:8;stroke-dasharray:50800, 38100;stroke-dashoffset:0;stroke-opacity:1"
           id="path330" /></g><g
         id="g332"
         transform="matrix(7.874016e-5,0,0,-7.874016e-5,393,380.75)"><path
           d="M 209550,0 0,282575 98425,450850 304800,438150 533400,355600 476250,222250 346075,250825 400050,92075 Z"
           style="fill:none;stroke:#00b050;stroke-width:12700;stroke-linecap:butt;stroke-linejoin:miter;stroke-miterlimit:8;stroke-dasharray:38100, 12700;stroke-dashoffset:0;stroke-opacity:1"
           id="path334" /></g><path
         d="m 107.0281,300.7379 c 0,3.8222 3.0985,6.9207 6.9207,6.9207 h 137.9086 c 3.8222,0 6.9207,-3.0985 6.9207,-6.9207 V 233.006 c 0,-3.8222 -3.0985,-6.9207 -6.9207,-6.9207 H 113.9488 c -3.8222,0 -6.9207,3.0985 -6.9207,6.9207 z"
         style="fill:#f2f2f2;fill-opacity:1;fill-rule:nonzero;stroke:none"
         id="path336" /><g
         id="g338"
         transform="matrix(7.874016e-5,0,0,-7.874016e-5,107.0281,307.6586)"><path
           d="M 0,87892.8 C 0,39350.95 39350.93,0 87892.75,0 H 1839332 c 48542,0 87893,39350.95 87893,87892.8 v 860195.3 c 0,48541.9 -39351,87892.9 -87893,87892.9 H 87892.75 C 39350.93,1035981 0,996630 0,948088.1 Z"
           style="fill:none;stroke:#181717;stroke-width:12700;stroke-linecap:butt;stroke-linejoin:miter;stroke-miterlimit:8;stroke-dasharray:none;stroke-opacity:1"
           id="path340" /></g><g
         id="g342"
         transform="matrix(0.24,0,0,0.24,136.4031,-246.48)"><text
           transform="matrix(1,0,0,-1,0,2250)"
           style="font-variant:normal;font-weight:normal;font-size:50px;font-family:Arial;-inkscape-font-specification:ArialMT;writing-mode:lr-tb;fill:#181717;fill-opacity:1;fill-rule:nonzero;stroke:none"
           id="text346"><tspan
             x="0 35.935001 46.869999 71.870003 85.934998 113.54 141.145 166.145 193.75 207.815 235.42 263.02499 290.63 301.565 326.565 351.565 362.5"
             y="0"
             id="tspan344">Distance analysis</tspan></text></g><path
         d="m 107.0281,403.5825 c 0,4.35 3.5264,7.8764 7.8764,7.8764 h 135.9972 c 4.35,0 7.8764,-3.5264 7.8764,-7.8764 v -77.0866 c 0,-4.3501 -3.5264,-7.8765 -7.8764,-7.8765 H 114.9045 c -4.35,0 -7.8764,3.5264 -7.8764,7.8765 z"
         style="fill:#f2f2f2;fill-opacity:1;fill-rule:nonzero;stroke:none"
         id="path348" /><g
         id="g350"
         transform="matrix(7.874016e-5,0,0,-7.874016e-5,107.0281,411.4589)"><path
           d="M 0,100030.8 C 0,44785.3 44785.25,0 100030.6,0 H 1827194 c 55246,0 100031,44785.3 100031,100030.8 V 1079030 c 0,55246 -44785,100031 -100031,100031 H 100030.6 C 44785.25,1179061 0,1134276 0,1079030 Z"
           style="fill:none;stroke:#181717;stroke-width:12700;stroke-linecap:butt;stroke-linejoin:miter;stroke-miterlimit:8;stroke-dasharray:none;stroke-opacity:1"
           id="path352" /></g><g
         id="g354"
         transform="matrix(0.24,0,0,0.24,143.6531,-142.8)"><text
           transform="matrix(1,0,0,-1,0,2250)"
           style="font-variant:normal;font-weight:normal;font-size:50px;font-family:Arial;-inkscape-font-specification:ArialMT;writing-mode:lr-tb;fill:#181717;fill-opacity:1;fill-rule:nonzero;stroke:none"
           id="text358"><tspan
             x="0 35.935001 46.869999 74.474998 99.474998 127.08 152.08 166.145 180.21001 205.21001 216.145 243.75 268.75 282.815"
             y="0"
             id="tspan356">Closest cluste</tspan></text></g><g
         id="g360"
         transform="matrix(0.24,0,0,0.24,218.1531,-142.8)"><text
           transform="matrix(1,0,0,-1,0,2250)"
           style="font-variant:normal;font-weight:normal;font-size:50px;font-family:Arial;-inkscape-font-specification:ArialMT;writing-mode:lr-tb;fill:#181717;fill-opacity:1;fill-rule:nonzero;stroke:none"
           id="text364"><tspan
             x="0"
             y="0"
             id="tspan362">r</tspan></text></g><path
         d="m 125.9887,341.0087 v 43.1083 h -0.5 v -43.1083 z m 3.466,37.2342 -3.716,6.3702 -3.7159,-6.3702 c -0.0696,-0.1192 -0.0293,-0.2723 0.09,-0.3419 0.1192,-0.0695 0.2723,-0.0293 0.3419,0.09 l 3.5,6 h -0.4319 l 3.5,-6 c 0.0695,-0.1193 0.2226,-0.1595 0.3419,-0.09 0.1193,0.0696 0.1595,0.2227 0.09,0.3419 z"
         style="fill:#181717;fill-opacity:1;fill-rule:nonzero;stroke:none"
         id="path366" /><path
         d="m 125.7124,341.2587 h 120.5703 v -0.5 H 125.7124 Z m 114.6967,3.4659 6.3702,-3.7159 -6.3702,-3.716 c -0.1193,-0.0695 -0.2724,-0.0293 -0.3419,0.09 -0.0696,0.1193 -0.0293,0.2723 0.0899,0.3419 l 6,3.5 v -0.4319 l -6,3.5 c -0.1192,0.0696 -0.1595,0.2227 -0.0899,0.3419 0.0695,0.1193 0.2226,0.1596 0.3419,0.09 z"
         style="fill:#181717;fill-opacity:1;fill-rule:nonzero;stroke:none"
         id="path368" /><g
         id="g370"
         transform="matrix(0.24,0,0,0.24,159.4563,-207.12)"><text
           transform="matrix(1,0,0,-1,0,2250)"
           style="font-variant:normal;font-weight:normal;font-size:33.3333px;font-family:Arial;-inkscape-font-specification:ArialMT;writing-mode:lr-tb;fill:#000000;fill-opacity:1;fill-rule:nonzero;stroke:none"
           id="text374"><tspan
             x="0 20.313332 39.063328 57.813328 67.189995 85.939995 96.876656 115.62666 125.00332 141.66998 160.41998 179.16998 195.83665"
             y="0"
             id="tspan372">Feature space</tspan></text></g><path
         d="m 189.7132,357.0467 c 0,1.5188 1.2312,2.75 2.75,2.75 1.5188,0 2.75,-1.2312 2.75,-2.75 0,-1.5188 -1.2312,-2.75 -2.75,-2.75 -1.5188,0 -2.75,1.2312 -2.75,2.75 z"
         style="fill:#4472c4;fill-opacity:1;fill-rule:nonzero;stroke:none"
         id="path376" /><path
         d="m 195.2132,353.5575 c 0,1.5188 1.2312,2.75 2.75,2.75 1.5188,0 2.75,-1.2312 2.75,-2.75 0,-1.5188 -1.2312,-2.75 -2.75,-2.75 -1.5188,0 -2.75,1.2312 -2.75,2.75 z"
         style="fill:#4472c4;fill-opacity:1;fill-rule:nonzero;stroke:none"
         id="path378" /><path
         d="m 199.4632,370.3981 c 0,1.5188 1.2312,2.75 2.75,2.75 1.5188,0 2.75,-1.2312 2.75,-2.75 0,-1.5188 -1.2312,-2.75 -2.75,-2.75 -1.5188,0 -2.75,1.2312 -2.75,2.75 z"
         style="fill:#4472c4;fill-opacity:1;fill-rule:nonzero;stroke:none"
         id="path380" /><path
         d="m 206.2865,370.3942 c 0,1.5188 1.2312,2.75 2.75,2.75 1.5188,0 2.75,-1.2312 2.75,-2.75 0,-1.5188 -1.2312,-2.75 -2.75,-2.75 -1.5188,0 -2.75,1.2312 -2.75,2.75 z"
         style="fill:#4472c4;fill-opacity:1;fill-rule:nonzero;stroke:none"
         id="path382" /><path
         d="m 218.1996,356.4336 c 0,1.5188 1.2312,2.75 2.75,2.75 1.5188,0 2.75,-1.2312 2.75,-2.75 0,-1.5188 -1.2312,-2.75 -2.75,-2.75 -1.5188,0 -2.75,1.2312 -2.75,2.75 z"
         style="fill:#4472c4;fill-opacity:1;fill-rule:nonzero;stroke:none"
         id="path384" /><path
         d="m 201.8795,361.9642 c 0,1.5188 1.2312,2.75 2.75,2.75 1.5188,0 2.75,-1.2312 2.75,-2.75 0,-1.5188 -1.2312,-2.75 -2.75,-2.75 -1.5188,0 -2.75,1.2312 -2.75,2.75 z"
         style="fill:#4472c4;fill-opacity:1;fill-rule:nonzero;stroke:none"
         id="path386" /><path
         d="m 208.3708,355.2936 c 0,1.5188 1.2312,2.75 2.75,2.75 1.5188,0 2.75,-1.2312 2.75,-2.75 0,-1.5188 -1.2312,-2.75 -2.75,-2.75 -1.5188,0 -2.75,1.2312 -2.75,2.75 z"
         style="fill:#4472c4;fill-opacity:1;fill-rule:nonzero;stroke:none"
         id="path388" /><path
         d="m 149.8746,345.0188 2.6929,5.3858 2.693,-5.3858 z"
         style="fill:#ff0000;fill-opacity:1;fill-rule:nonzero;stroke:none"
         id="path390" /><path
         d="m 140.9705,357.947 2.6929,5.3858 2.6929,-5.3858 z"
         style="fill:#ff0000;fill-opacity:1;fill-rule:nonzero;stroke:none"
         id="path392" /><path
         d="m 134.4922,345.3438 2.6929,5.3858 2.6929,-5.3858 z"
         style="fill:#ff0000;fill-opacity:1;fill-rule:nonzero;stroke:none"
         id="path394" /><path
         d="m 136.2845,369.2276 2.6929,5.3859 2.6929,-5.3859 z"
         style="fill:#ff0000;fill-opacity:1;fill-rule:nonzero;stroke:none"
         id="path396" /><path
         d="m 158.976,376.3396 h 5.3858 v -5.3858 h -5.3858 z"
         style="fill:#4472c4;fill-opacity:1;fill-rule:nonzero;stroke:none"
         id="path398" /><path
         d="m 170.976,364.3396 h 5.3858 v -5.3858 h -5.3858 z"
         style="fill:#4472c4;fill-opacity:1;fill-rule:nonzero;stroke:none"
         id="path400" /><path
         d="m 171.4339,352.0495 h 5.3859 v -5.3858 h -5.3859 z"
         style="fill:#4472c4;fill-opacity:1;fill-rule:nonzero;stroke:none"
         id="path402" /><path
         d="m 175.1755,375.5031 h 5.3858 v -5.3859 h -5.3858 z"
         style="fill:#4472c4;fill-opacity:1;fill-rule:nonzero;stroke:none"
         id="path404" /><path
         d="m 159.5138,362.4325 h 5.3859 v -5.3858 h -5.3859 z"
         style="fill:#4472c4;fill-opacity:1;fill-rule:nonzero;stroke:none"
         id="path406" /><path
         d="m 183.1531,318.6195 1e-4,-5.9609 h -0.5 l -1e-4,5.9609 z m 2.7501,-4.9609 -3,-6 -3,6 z"
         style="fill:#181717;fill-opacity:1;fill-rule:nonzero;stroke:none"
         id="path408" /><g
         id="g410"
         transform="matrix(7.874016e-5,0,0,-7.874016e-5,156.1052,379.8195)"><path
           d="M 15875,3175 0,215900 l 60325,136525 79375,60325 63500,57150 88900,-6350 22225,-107950 V 206375 L 377825,161925 428625,57150 425450,0 H 219075 Z"
           style="fill:none;stroke:#843c0c;stroke-width:12700;stroke-linecap:butt;stroke-linejoin:miter;stroke-miterlimit:8;stroke-dasharray:50800, 38100;stroke-dashoffset:0;stroke-opacity:1"
           id="path412" /></g><g
         id="g414"
         transform="matrix(7.874016e-5,0,0,-7.874016e-5,185.8552,380.8194)"><path
           d="M 209550,0 0,282575 98425,450850 304800,438150 533400,355600 476250,222250 346075,250825 400050,92075 Z"
           style="fill:none;stroke:#00b050;stroke-width:12700;stroke-linecap:butt;stroke-linejoin:miter;stroke-miterlimit:8;stroke-dasharray:38100, 12700;stroke-dashoffset:0;stroke-opacity:1"
           id="path416" /></g><g
         id="g418"
         transform="matrix(7.874016e-5,0,0,-7.874016e-5,140.3239,371.9206)"><path
           d="M 0,0 200423,115584"
           style="fill:none;stroke:#0d0d0d;stroke-width:6350;stroke-linecap:butt;stroke-linejoin:miter;stroke-miterlimit:8;stroke-dasharray:25400, 19050;stroke-dashoffset:0;stroke-opacity:1"
           id="path420" /></g><g
         id="g422"
         transform="matrix(7.874016e-5,0,0,7.874016e-5,145.0098,360.6399)"><path
           d="M 0,0 140911,27680"
           style="fill:none;stroke:#0d0d0d;stroke-width:6350;stroke-linecap:butt;stroke-linejoin:miter;stroke-miterlimit:8;stroke-dasharray:25400, 19050;stroke-dashoffset:0;stroke-opacity:1"
           id="path424" /></g><g
         id="g426"
         transform="matrix(7.874016e-5,0,0,7.874016e-5,138.5316,348.0367)"><path
           d="M 0,0 223185,187741"
           style="fill:none;stroke:#0d0d0d;stroke-width:6350;stroke-linecap:butt;stroke-linejoin:miter;stroke-miterlimit:8;stroke-dasharray:25400, 19050;stroke-dashoffset:0;stroke-opacity:1"
           id="path428" /></g><g
         id="g430"
         transform="matrix(7.874016e-5,0,0,7.874016e-5,153.914,347.7117)"><path
           d="M 0,0 27828,191868"
           style="fill:none;stroke:#0d0d0d;stroke-width:6350;stroke-linecap:butt;stroke-linejoin:miter;stroke-miterlimit:8;stroke-dasharray:25400, 19050;stroke-dashoffset:0;stroke-opacity:1"
           id="path432" /></g><g
         id="g434"
         transform="matrix(7.874016e-5,0,0,7.874016e-5,153.914,347.7117)"><path
           d="M 0,0 405653,137893"
           style="fill:none;stroke:#0d0d0d;stroke-width:6350;stroke-linecap:butt;stroke-linejoin:miter;stroke-miterlimit:8;stroke-dasharray:25400, 19050;stroke-dashoffset:0;stroke-opacity:1"
           id="path436" /></g><g
         id="g438"
         transform="matrix(7.874016e-5,0,0,7.874016e-5,138.5316,348.0367)"><path
           d="M 0,0 601010,133766"
           style="fill:none;stroke:#0d0d0d;stroke-width:6350;stroke-linecap:butt;stroke-linejoin:miter;stroke-miterlimit:8;stroke-dasharray:25400, 19050;stroke-dashoffset:0;stroke-opacity:1"
           id="path440" /></g><g
         id="g442"
         transform="matrix(7.874016e-5,0,0,-7.874016e-5,145.0098,360.6399)"><path
           d="M 0,0 518736,26295"
           style="fill:none;stroke:#0d0d0d;stroke-width:6350;stroke-linecap:butt;stroke-linejoin:miter;stroke-miterlimit:8;stroke-dasharray:25400, 19050;stroke-dashoffset:0;stroke-opacity:1"
           id="path444" /></g><g
         id="g446"
         transform="matrix(7.874016e-5,0,0,-7.874016e-5,140.3239,371.9206)"><path
           d="M 0,0 578248,169559"
           style="fill:none;stroke:#0d0d0d;stroke-width:6350;stroke-linecap:butt;stroke-linejoin:miter;stroke-miterlimit:8;stroke-dasharray:25400, 19050;stroke-dashoffset:0;stroke-opacity:1"
           id="path448" /></g><path
         d="m 126.8995,242.0156 1e-4,43.1082 h -0.5 l -1e-4,-43.1082 z m 3.466,37.2342 -3.7159,6.3702 -3.716,-6.3702 c -0.0695,-0.1193 -0.0292,-0.2723 0.09,-0.3419 0.1193,-0.0696 0.2724,-0.0293 0.3419,0.09 l 3.5,6 h -0.4318 l 3.4999,-6 c 0.0696,-0.1193 0.2227,-0.1596 0.342,-0.09 0.1192,0.0695 0.1595,0.2226 0.0899,0.3419 z"
         style="fill:#181717;fill-opacity:1;fill-rule:nonzero;stroke:none"
         id="path450" /><path
         d="m 126.6232,242.2656 120.5704,-1e-4 v -0.5 l -120.5704,1e-4 z m 114.6967,3.4659 6.3702,-3.716 -6.3702,-3.7159 c -0.1192,-0.0696 -0.2723,-0.0293 -0.3419,0.09 -0.0695,0.1192 -0.0293,0.2723 0.09,0.3419 l 6,3.5 v -0.4319 l -6,3.5 c -0.1193,0.0696 -0.1595,0.2226 -0.09,0.3419 0.0696,0.1193 0.2227,0.1595 0.3419,0.09 z"
         style="fill:#181717;fill-opacity:1;fill-rule:nonzero;stroke:none"
         id="path452" /><g
         id="g454"
         transform="matrix(0.24,0,0,0.24,160.3672,-306.24)"><text
           transform="matrix(1,0,0,-1,0,2250)"
           style="font-variant:normal;font-weight:normal;font-size:33.3333px;font-family:Arial;-inkscape-font-specification:ArialMT;writing-mode:lr-tb;fill:#000000;fill-opacity:1;fill-rule:nonzero;stroke:none"
           id="text458"><tspan
             x="0 20.313332 39.063328 57.813328 67.189995 85.939995 96.876656 115.62666 125.00332 141.66998 160.41998 179.16998 195.83665"
             y="0"
             id="tspan456">Feature space</tspan></text></g><path
         d="m 190.6241,258.0535 c 0,1.5188 1.2312,2.75 2.75,2.75 1.5188,0 2.75,-1.2312 2.75,-2.75 0,-1.5187 -1.2312,-2.75 -2.75,-2.75 -1.5188,0 -2.75,1.2313 -2.75,2.75 z"
         style="fill:#7f7f7f;fill-opacity:1;fill-rule:nonzero;stroke:none"
         id="path460" /><path
         d="m 196.1241,254.5643 c 0,1.5188 1.2312,2.75 2.75,2.75 1.5188,0 2.75,-1.2312 2.75,-2.75 0,-1.5187 -1.2312,-2.75 -2.75,-2.75 -1.5188,0 -2.75,1.2313 -2.75,2.75 z"
         style="fill:#7f7f7f;fill-opacity:1;fill-rule:nonzero;stroke:none"
         id="path462" /><path
         d="m 200.3741,271.405 c 0,1.5188 1.2312,2.75 2.75,2.75 1.5188,0 2.75,-1.2312 2.75,-2.75 0,-1.5188 -1.2312,-2.75 -2.75,-2.75 -1.5188,0 -2.75,1.2312 -2.75,2.75 z"
         style="fill:#7f7f7f;fill-opacity:1;fill-rule:nonzero;stroke:none"
         id="path464" /><path
         d="m 207.1974,271.401 c 0,1.5188 1.2312,2.75 2.75,2.75 1.5188,0 2.75,-1.2312 2.75,-2.75 0,-1.5188 -1.2312,-2.75 -2.75,-2.75 -1.5188,0 -2.75,1.2312 -2.75,2.75 z"
         style="fill:#7f7f7f;fill-opacity:1;fill-rule:nonzero;stroke:none"
         id="path466" /><path
         d="m 219.1105,257.4405 c 0,1.5188 1.2312,2.75 2.75,2.75 1.5188,0 2.75,-1.2312 2.75,-2.75 0,-1.5188 -1.2312,-2.75 -2.75,-2.75 -1.5188,0 -2.75,1.2312 -2.75,2.75 z"
         style="fill:#7f7f7f;fill-opacity:1;fill-rule:nonzero;stroke:none"
         id="path468" /><path
         d="m 202.7904,262.971 c 0,1.5188 1.2312,2.75 2.75,2.75 1.5188,0 2.75,-1.2312 2.75,-2.75 0,-1.5188 -1.2312,-2.75 -2.75,-2.75 -1.5188,0 -2.75,1.2312 -2.75,2.75 z"
         style="fill:#7f7f7f;fill-opacity:1;fill-rule:nonzero;stroke:none"
         id="path470" /><path
         d="m 209.2817,256.3005 c 0,1.5188 1.2312,2.75 2.75,2.75 1.5187,0 2.75,-1.2312 2.75,-2.75 0,-1.5188 -1.2313,-2.75 -2.75,-2.75 -1.5188,0 -2.75,1.2312 -2.75,2.75 z"
         style="fill:#7f7f7f;fill-opacity:1;fill-rule:nonzero;stroke:none"
         id="path472" /><path
         d="m 150.7855,246.0257 2.6929,5.3858 2.6929,-5.3858 z"
         style="fill:#ff0000;fill-opacity:1;fill-rule:nonzero;stroke:none"
         id="path474" /><path
         d="m 141.8813,258.9539 2.6929,5.3858 2.693,-5.3858 z"
         style="fill:#ff0000;fill-opacity:1;fill-rule:nonzero;stroke:none"
         id="path476" /><path
         d="m 135.4031,246.3506 2.6929,5.3859 2.6929,-5.3859 z"
         style="fill:#ff0000;fill-opacity:1;fill-rule:nonzero;stroke:none"
         id="path478" /><path
         d="m 137.1954,270.2345 2.6929,5.3858 2.6929,-5.3858 z"
         style="fill:#ff0000;fill-opacity:1;fill-rule:nonzero;stroke:none"
         id="path480" /><path
         d="m 159.8868,277.3465 h 5.3859 v -5.3859 h -5.3859 z"
         style="fill:#4472c4;fill-opacity:1;fill-rule:nonzero;stroke:none"
         id="path482" /><path
         d="m 171.8868,265.3465 h 5.3859 v -5.3859 h -5.3859 z"
         style="fill:#4472c4;fill-opacity:1;fill-rule:nonzero;stroke:none"
         id="path484" /><path
         d="m 172.3448,253.0564 h 5.3858 v -5.3858 h -5.3858 z"
         style="fill:#4472c4;fill-opacity:1;fill-rule:nonzero;stroke:none"
         id="path486" /><path
         d="m 176.0864,276.5099 h 5.3858 v -5.3858 h -5.3858 z"
         style="fill:#4472c4;fill-opacity:1;fill-rule:nonzero;stroke:none"
         id="path488" /><path
         d="m 160.4247,263.4394 h 5.3858 v -5.3858 h -5.3858 z"
         style="fill:#4472c4;fill-opacity:1;fill-rule:nonzero;stroke:none"
         id="path490" /><g
         id="g492"
         transform="matrix(7.874016e-5,0,0,-7.874016e-5,157.0161,280.8263)"><path
           d="M 15875,3175 0,215900 l 60325,136525 79375,60325 63500,57150 88900,-6350 22225,-107950 V 206375 L 377825,161925 428625,57150 425450,0 H 219075 Z"
           style="fill:none;stroke:#843c0c;stroke-width:12700;stroke-linecap:butt;stroke-linejoin:miter;stroke-miterlimit:8;stroke-dasharray:50800, 38100;stroke-dashoffset:0;stroke-opacity:1"
           id="path494" /></g><g
         id="g496"
         transform="matrix(7.874016e-5,0,0,-7.874016e-5,186.7661,281.8263)"><path
           d="M 209550,0 0,282575 98425,450850 304800,438150 533400,355600 476250,222250 346075,250825 400050,92075 Z"
           style="fill:none;stroke:#7f7f7f;stroke-width:12700;stroke-linecap:butt;stroke-linejoin:miter;stroke-miterlimit:8;stroke-dasharray:38100, 12700;stroke-dashoffset:0;stroke-opacity:1"
           id="path498" /></g></g></g></svg>
